<svg viewBox="0 0 332 30" fill="none" xmlns="http://www.w3.org/2000/svg">
<path d="M32 4.41176C30.8222 5.00882 29.5526 5.40118 28.2371 5.58882C29.5832 4.68471 30.6233 3.25176 31.1128 1.52882C29.8432 2.38176 28.4359 2.97882 26.9522 3.32C25.7438 1.85294 24.0459 1 22.1185 1C18.5239 1 15.587 4.27529 15.587 8.31823C15.587 8.89823 15.6482 9.46118 15.7553 9.99C10.3098 9.68294 5.4608 6.76588 2.23327 2.34765C1.6673 3.42235 1.34608 4.68471 1.34608 6.01529C1.34608 8.55706 2.49331 10.8088 4.26769 12.0882C3.18164 12.0882 2.17208 11.7471 1.2849 11.2353C1.2849 11.2353 1.2849 11.2353 1.2849 11.2865C1.2849 14.8347 3.54876 17.8029 6.54685 18.4682C5.99618 18.6388 5.41491 18.7241 4.81836 18.7241C4.40535 18.7241 3.99235 18.6729 3.59465 18.5876C4.42065 21.4706 6.82218 23.62 9.71319 23.6712C7.47992 25.65 4.6501 26.81 1.56023 26.81C1.04015 26.81 0.520077 26.7759 0 26.7076C2.90631 28.7888 6.36329 30 10.065 30C22.1185 30 28.7419 18.8435 28.7419 9.17118C28.7419 8.84706 28.7419 8.54 28.7266 8.21588C30.0115 7.19235 31.1128 5.89588 32 4.41176Z" fill="#9CA3AF"/>
<path d="M310.7 0H323.3C328.1 0 332 3.9 332 8.7V21.3C332 23.6074 331.083 25.8203 329.452 27.4518C327.82 29.0834 325.607 30 323.3 30H310.7C305.9 30 302 26.1 302 21.3V8.7C302 6.39262 302.917 4.17974 304.548 2.54817C306.18 0.916605 308.393 0 310.7 0ZM310.4 3C308.968 3 307.594 3.56893 306.582 4.58162C305.569 5.59432 305 6.96783 305 8.4V21.6C305 24.585 307.415 27 310.4 27H323.6C325.032 27 326.406 26.4311 327.418 25.4184C328.431 24.4057 329 23.0322 329 21.6V8.4C329 5.415 326.585 3 323.6 3H310.4ZM324.875 5.25C325.372 5.25 325.849 5.44754 326.201 5.79917C326.552 6.15081 326.75 6.62772 326.75 7.125C326.75 7.62228 326.552 8.09919 326.201 8.45082C325.849 8.80246 325.372 9 324.875 9C324.378 9 323.901 8.80246 323.549 8.45082C323.198 8.09919 323 7.62228 323 7.125C323 6.62772 323.198 6.15081 323.549 5.79917C323.901 5.44754 324.378 5.25 324.875 5.25ZM317 7.5C318.989 7.5 320.897 8.29018 322.303 9.6967C323.71 11.1032 324.5 13.0109 324.5 15C324.5 16.9891 323.71 18.8968 322.303 20.3033C320.897 21.7098 318.989 22.5 317 22.5C315.011 22.5 313.103 21.7098 311.697 20.3033C310.29 18.8968 309.5 16.9891 309.5 15C309.5 13.0109 310.29 11.1032 311.697 9.6967C313.103 8.29018 315.011 7.5 317 7.5ZM317 10.5C315.807 10.5 314.662 10.9741 313.818 11.818C312.974 12.6619 312.5 13.8065 312.5 15C312.5 16.1935 312.974 17.3381 313.818 18.182C314.662 19.0259 315.807 19.5 317 19.5C318.193 19.5 319.338 19.0259 320.182 18.182C321.026 17.3381 321.5 16.1935 321.5 15C321.5 13.8065 321.026 12.6619 320.182 11.818C319.338 10.9741 318.193 10.5 317 10.5Z" fill="#9CA3AF"/>
<path d="M92 0C83.75 0 77 6.76205 77 15.0904C77 22.6205 82.49 28.8705 89.66 30V19.4578H85.85V15.0904H89.66V11.762C89.66 7.98193 91.895 5.90361 95.33 5.90361C96.965 5.90361 98.675 6.18976 98.675 6.18976V9.90964H96.785C94.925 9.90964 94.34 11.0693 94.34 12.259V15.0904H98.51L97.835 19.4578H94.34V30C97.8746 29.4395 101.093 27.6288 103.415 24.8947C105.736 22.1606 107.008 18.6832 107 15.0904C107 6.76205 100.25 0 92 0Z" fill="#9CA3AF"/>
<path d="M164 20.3683L171.785 15.4578L164 10.5473V20.3683ZM181.34 7.55191C181.535 8.32122 181.67 9.35242 181.76 10.6619C181.865 11.9713 181.91 13.1008 181.91 14.0829L182 15.4578C182 19.0424 181.76 21.6777 181.34 23.3637C180.965 24.8368 180.095 25.7862 178.745 26.1954C178.04 26.4082 176.75 26.5555 174.77 26.6537C172.82 26.7683 171.035 26.8174 169.385 26.8174L167 26.9156C160.715 26.9156 156.8 26.6537 155.255 26.1954C153.905 25.7862 153.035 24.8368 152.66 23.3637C152.465 22.5944 152.33 21.5632 152.24 20.2537C152.135 18.9442 152.09 17.8148 152.09 16.8327L152 15.4578C152 11.8731 152.24 9.23785 152.66 7.55191C153.035 6.07877 153.905 5.12941 155.255 4.7202C155.96 4.50742 157.25 4.3601 159.23 4.26189C161.18 4.14731 162.965 4.09821 164.615 4.09821L167 4C173.285 4 177.2 4.26189 178.745 4.7202C180.095 5.12941 180.965 6.07877 181.34 7.55191Z" fill="#9CA3AF"/>
<path d="M253.667 0C254.551 0 255.399 0.351189 256.024 0.976311C256.649 1.60143 257 2.44928 257 3.33333V26.6667C257 27.5507 256.649 28.3986 256.024 29.0237C255.399 29.6488 254.551 30 253.667 30H230.333C229.449 30 228.601 29.6488 227.976 29.0237C227.351 28.3986 227 27.5507 227 26.6667V3.33333C227 2.44928 227.351 1.60143 227.976 0.976311C228.601 0.351189 229.449 0 230.333 0H253.667ZM252.833 25.8333V17C252.833 15.559 252.261 14.177 251.242 13.1581C250.223 12.1391 248.841 11.5667 247.4 11.5667C245.983 11.5667 244.333 12.4333 243.533 13.7333V11.8833H238.883V25.8333H243.533V17.6167C243.533 16.3333 244.567 15.2833 245.85 15.2833C246.469 15.2833 247.062 15.5292 247.5 15.9668C247.938 16.4043 248.183 16.9978 248.183 17.6167V25.8333H252.833ZM233.467 9.26667C234.209 9.26667 234.921 8.97167 235.447 8.44657C235.972 7.92146 236.267 7.20927 236.267 6.46667C236.267 4.91667 235.017 3.65 233.467 3.65C232.72 3.65 232.003 3.94675 231.475 4.47498C230.947 5.00321 230.65 5.71964 230.65 6.46667C230.65 8.01667 231.917 9.26667 233.467 9.26667ZM235.783 25.8333V11.8833H231.167V25.8333H235.783Z" fill="#9CA3AF"/>
</svg>
